<svg xmlns="http://www.w3.org/2000/svg" width="256" height="256" viewBox="0 0 100 100"><rect width="100" height="100" rx="20" fill="#53b2b8"></rect><path d="M13.95 53.41L11.28 53.41L11.28 59.62Q11.04 59.71 10.65 59.78Q10.26 59.86 9.78 59.86L9.78 59.86Q8.85 59.86 8.45 59.51Q8.04 59.17 8.04 58.36L8.04 58.36L8.04 42.88Q8.04 42.37 8.33 42.08Q8.61 41.80 9.12 41.65L9.12 41.65Q10.05 41.32 11.34 41.20Q12.63 41.08 13.77 41.08L13.77 41.08Q17.67 41.08 19.55 42.73Q21.42 44.38 21.42 47.20L21.42 47.20Q21.42 50.02 19.55 51.71Q17.67 53.41 13.95 53.41L13.95 53.41ZM11.25 50.80L13.74 50.80Q15.81 50.80 17.00 49.90Q18.18 49.00 18.18 47.20L18.18 47.20Q18.18 45.40 17.06 44.56Q15.93 43.72 13.83 43.72L13.83 43.72Q13.14 43.72 12.47 43.78Q11.79 43.84 11.25 43.93L11.25 43.93L11.25 50.80ZM37.62 50.44L37.62 50.44Q37.62 48.67 37.11 47.39Q36.60 46.12 35.70 45.31Q34.80 44.50 33.60 44.11Q32.40 43.72 31.02 43.72L31.02 43.72Q29.43 43.72 28.38 43.93L28.38 43.93L28.38 57.16Q28.98 57.31 29.72 57.35Q30.45 57.40 31.20 57.40L31.20 57.40Q34.32 57.40 35.97 55.64Q37.62 53.89 37.62 50.44ZM40.92 50.41L40.92 50.41Q40.92 52.84 40.23 54.65Q39.54 56.47 38.27 57.67Q36.99 58.87 35.19 59.45Q33.39 60.04 31.20 60.04L31.20 60.04Q30.24 60.04 28.95 59.95Q27.66 59.86 26.55 59.50L26.55 59.50Q25.17 59.05 25.17 57.88L25.17 57.88L25.17 42.85Q25.17 42.34 25.46 42.05Q25.74 41.77 26.25 41.62L26.25 41.62Q27.30 41.29 28.53 41.18Q29.76 41.08 30.93 41.08L30.93 41.08Q33.15 41.08 35.00 41.65Q36.84 42.22 38.16 43.39Q39.48 44.56 40.20 46.31Q40.92 48.07 40.92 50.41ZM56.16 58.57L55.02 55.12L47.70 55.12L46.23 59.71Q45.96 59.83 45.66 59.89Q45.36 59.95 44.94 59.95L44.94 59.95Q44.19 59.95 43.71 59.62Q43.23 59.29 43.23 58.63L43.23 58.63Q43.23 58.30 43.32 57.98Q43.41 57.67 43.56 57.28L43.56 57.28Q43.95 56.02 44.66 54.02Q45.36 52.03 46.16 49.81Q46.95 47.59 47.76 45.44Q48.57 43.30 49.17 41.77L49.17 41.77Q49.47 41.59 50.10 41.42Q50.73 41.26 51.39 41.26L51.39 41.26Q52.26 41.26 52.95 41.50Q53.64 41.74 53.88 42.34L53.88 42.34Q54.54 44.05 55.32 46.22Q56.10 48.40 56.88 50.71Q57.66 53.02 58.38 55.24Q59.10 57.46 59.67 59.26L59.67 59.26Q59.40 59.56 58.97 59.75Q58.53 59.95 57.93 59.95L57.93 59.95Q57.12 59.95 56.76 59.63Q56.40 59.32 56.16 58.57L56.16 58.57ZM51.51 44.05L51.36 44.05Q51.06 44.86 50.70 45.88Q50.34 46.90 49.95 48.02Q49.56 49.15 49.17 50.30Q48.78 51.46 48.42 52.54L48.42 52.54L54.33 52.54Q53.94 51.34 53.54 50.12Q53.13 48.91 52.76 47.80Q52.38 46.69 52.05 45.71Q51.72 44.74 51.51 44.05L51.51 44.05ZM72.00 50.59L72.00 50.59Q72.00 49.12 71.18 48.43Q70.36 47.74 68.94 47.74L68.94 47.74Q67.89 47.74 67.07 48.01Q66.25 48.28 65.64 48.61L65.64 48.61L65.64 59.62Q65.44 59.71 65.06 59.78Q64.69 59.86 64.23 59.86L64.23 59.86Q63.36 59.86 62.95 59.53Q62.52 59.20 62.52 58.42L62.52 58.42L62.52 48.52Q62.52 47.83 62.80 47.41Q63.06 46.99 63.70 46.57L63.70 46.57Q64.53 46.06 65.88 45.64Q67.23 45.22 68.94 45.22L68.94 45.22Q71.86 45.22 73.50 46.52Q75.16 47.83 75.16 50.47L75.16 50.47L75.16 59.62Q74.94 59.71 74.55 59.78Q74.16 59.86 73.72 59.86L73.72 59.86Q72.84 59.86 72.42 59.53Q72.00 59.20 72.00 58.42L72.00 58.42L72.00 50.59ZM88.83 50.92L88.83 50.92Q88.83 49.27 87.95 48.50Q87.06 47.74 85.63 47.74L85.63 47.74Q84.66 47.74 83.87 48.05Q83.07 48.37 82.47 48.82L82.47 48.82L82.47 59.62Q82.27 59.71 81.89 59.78Q81.52 59.86 81.06 59.86L81.06 59.86Q80.19 59.86 79.77 59.53Q79.35 59.20 79.35 58.42L79.35 58.42L79.35 40.21Q79.56 40.15 79.95 40.06Q80.34 39.97 80.79 39.97L80.79 39.97Q81.66 39.97 82.07 40.30Q82.47 40.63 82.47 41.41L82.47 41.41L82.47 46.15Q83.16 45.79 84.08 45.50Q84.99 45.22 86.13 45.22L86.13 45.22Q88.74 45.22 90.35 46.60Q91.95 47.98 91.95 50.80L91.95 50.80L91.95 59.62Q91.74 59.71 91.35 59.78Q90.96 59.86 90.54 59.86L90.54 59.86Q89.64 59.86 89.24 59.53Q88.83 59.20 88.83 58.42L88.83 58.42L88.83 50.92Z" fill="#ffffff"></path></svg>